<?xml version="1.0" encoding="utf-8"?>
<svg viewBox="0 0 500 500" xmlns="http://www.w3.org/2000/svg">
  <path d="M 115.61 222.152 C 115.61 222.152 117.074 118.446 116.623 67.956 C 116.544 59.045 154.109 24.51 154.109 24.51 C 184.728 -3.227 234.389 -6.673 274.041 22.618 L 379.399 131.238 C 395.573 142.416 405.008 167.51 406.152 191.707 L 405.893 406.783 C 402.29 448.765 354.219 493.307 355.911 467.45 L 355.644 324.706 C 357.306 215.266 233.115 149.988 129.725 225.777 C 120.161 236.714 115.162 228.046 115.61 222.152 Z" style="fill: rgb(195, 60, 84); stroke: rgb(195, 60, 84);"/>
  <path d="M 116.416 303.592 C 119.829 217.505 306.328 195.714 310.351 321.321 L 309.878 481.635 C 314.548 491.414 312.563 498.049 307.27 497.98 L 119.629 497.538 C 112.416 497.451 112.643 489.106 116.28 480.061 L 116.416 303.592 Z" style="fill: rgb(195, 60, 84); stroke: rgb(195, 60, 84);"/>
</svg>